# AST/ASF file generated using VICON BodyLanguage
# -----------------------------------------------
:version 1.10
:name VICON
:units
  mass 1.0
  length 0.45
  angle deg
:documentation
   .ast/.asf automatically generated from VICON data using
   VICON BodyBuilder and BodyLanguage model FoxedUp or BRILLIANT.MOD
:root
   order TX TY TZ RX RY RZ
   axis XYZ
   position 0 0 0  
   orientation 0 0 0 
:bonedata
  begin
     id 1 
     name lhipjoint
     direction 0.588788 -0.725889 0.355548 
     length 2.37778 
     axis 0 0 0  XYZ
  end
  begin
     id 2 
     name lfemur
     direction 0.34202 -0.939693 0  
     length 6.86393  
     axis 0 0 20  XYZ
    dof rx ry rz
    limits (-160.0 20.0)
           (-70.0 70.0)
           (-60.0 70.0)
  end
  begin
     id 3 
     name ltibia
     direction 0.34202 -0.939693 0   
     length 7.32851   
     axis 0 0 20   XYZ
    dof rx
    limits (-10.0 170.0)
  end
  begin
     id 4 
     name lfoot
     direction 0.0626533 -0.172138 0.983078   
     length 1.98929   
     axis -90 7.62852e-016 20   XYZ
    dof rx rz
    limits (-45.0 90.0)
           (-70.0 20.0)
  end
  begin
     id 5 
     name ltoes
     direction 1.53647e-011 -4.21734e-011 1   
     length 1.00479   
     axis -90 7.62852e-016 20   XYZ
    dof rx
    limits (-90.0 20.0)
  end
  begin
     id 6 
     name rhipjoint
     direction -0.59141 -0.724168 0.354705   
     length 2.38343  
     axis 0 0 0  XYZ 
  end
  begin
     id 7 
     name rfemur
     direction -0.34202 -0.939693 0   
     length 6.95589   
     axis 0 0 -20   XYZ
    dof rx ry rz
    limits (-160.0 20.0)
           (-70.0 70.0)
           (-70.0 60.0)
  end
  begin
     id 8 
     name rtibia
     direction -0.34202 -0.939693 0   
     length 7.32327   
     axis 0 0 -20   XYZ
    dof rx
    limits (-10.0 170.0)
 end
 begin
     id 9 
     name rfoot
     direction -0.0660461 -0.18146 0.981178   
     length 1.85272  
     axis -90 -7.62852e-016 -20   XYZ
    dof rx rz
    limits (-45.0 90.0)
           (-20.0 70.0)
  end
  begin
     id 10 
     name rtoes
     direction -1.53586e-011 -4.21988e-011 1   
     length 0.93746   
     axis -90 -7.62852e-016 -20   XYZ
    dof rx
    limits (-90.0 20.0)
  end
  begin
     id 11 
     name lowerback
     direction -0.0107982 0.991059 0.13299   
     length 1.98691   
     axis 0 0 0   XYZ
    dof rx ry rz
    limits (-20.0 45.0)
           (-30.0 30.0)
           (-30.0 30.0)
  end
  begin
     id 12 
     name upperback
     direction 0.0076296 0.999916 0.0104576   
     length 1.99501   
     axis 0 0 0   XYZ
    dof rx ry rz
    limits (-20.0 45.0)
           (-30.0 30.0)
           (-30.0 30.0)
  end
  begin
     id 13 
     name thorax
     direction 0.01176 0.998615 -0.0512909   
     length 2.03144   
     axis 0 0 0   XYZ
    dof rx ry rz
    limits (-20.0 45.0)
           (-30.0 30.0)
           (-30.0 30.0)
  end
  begin
     id 14 
     name lowerneck
     direction -0.0171909 0.999644 0.0204011   
     length 1.71818   
     axis 0 0 0   XYZ
    dof rx ry rz
    limits (-20.0 45.0)
           (-30.0 30.0)
           (-30.0 30.0)
  end
  begin
     id 15 
     name upperneck
     direction 0.0250902 0.997482 -0.0663316   
     length 1.66199   
     axis 0 0 0   XYZ
    dof rx ry rz
    limits (-20.0 45.0)
           (-30.0 30.0)
           (-30.0 30.0)
  end
  begin
     id 16
     name head
     direction 0.00881535 0.99956 -0.0283365  
     length 1.81545  
     axis 0 0 0   XYZ
    dof rx ry rz
    limits (-20.0 45.0)
           (-30.0 30.0)
           (-30.0 30.0)
  end
  begin
     id 17 
     name lclavicle
     direction 0.840411 0.486876 -0.238035  
     length 3.30409  
     axis 0 0 0   XYZ
    dof ry rz
    limits (-20.0 10.0)
           (0.0 20.0)
  end
  begin
     id 18 
     name lhumerus
     direction 1 -4.48977e-011 -5.16239e-027   
     length 4.62672   
     axis 180 -30 -90   XYZ
    dof rx ry rz
    limits (-60.0 90.0)
           (-90.0 90.0)
           (-90.0 90.0)
  end
  begin
     id 19
     name lradius
     direction 1 -4.48977e-011 -8.71171e-027   
     length 3.11018   
     axis 180 -30 -90   XYZ
    dof rx
    limits (-10.0 170.0)
  end
  begin
     id 20
     name lwrist
     direction 1 -4.48912e-011 -1.03764e-026   
     length 1.55509   
     axis 9.09556e-015 90 90   XYZ
    dof ry
    limits (-180.0 0.0)
 end
  begin
     id 21 
     name lhand
     direction 1 -4.49072e-011 -2.07528e-026   
     length 0.743834   
     axis 1.3242e-014 90 90   XYZ
    dof rx rz
    limits (-90.0 90.0)
           (-45.0 45.0)
  end
  begin
     id 22 
     name lfingers
     direction 1 -4.48909e-011 -4.15056e-026   
     length 0.599698   
     axis 2.64841e-014 90 90   XYZ
    dof rx
    limits (0.0 90.0)
  end
  begin
     id 23
     name lthumb
     direction 0.707107 -6.35013e-011 0.707107   
     length 0.86105   
     axis -90 45 2.85299e-015   XYZ
    dof rx rz
    limits (-45.0 45.0)
           (-45.0 45.0)
  end
  begin
     id 24 
     name rclavicle
     direction -0.835208 0.500237 -0.228452   
     length 3.2716  
     axis 0 0 0   XYZ 
    dof ry rz
    limits (-10.0 20.0)
           (-20.0 0.0)
  end
  begin
     id 25 
     name rhumerus
     direction -1 -4.48978e-011 -5.1953e-028  
     length 4.55919   
     axis 180 30 90   XYZ
    dof rx ry rz
    limits (-90.0 60.0)
           (-90.0 90.0)
           (-90.0 90.0)
  end
  begin
     id 26 
     name rradius
     direction -1 -4.48961e-011 -5.99546e-027   
     length 3.22748   
     axis 180 30 90   XYZ
    dof rx
    limits (-10.0 170.0)
  end
  begin
     id 27 
     name rwrist
     direction -1 -4.48986e-011 -1.03764e-026   
     length 1.61374   
     axis 9.09556e-015 -90 -90   XYZ
    dof ry
    limits (-180.0 0.0)
  end
  begin
     id 28
     name rhand
     direction -1 -4.4899e-011 -2.07528e-026   
     length 0.700882   
     axis 1.3242e-014 -90 -90   XYZ
    dof rx rz
    limits (-90.0 90.0)
           (-45.0 45.0)
  end
  begin
     id 29
     name rfingers
     direction -1 -4.48991e-011 -4.15056e-026   
     length 0.565069   
     axis 2.64841e-014 -90 -90   XYZ
    dof rx
    limits (0.0 90.0)
  end
  begin
     id 30
     name rthumb
     direction -0.707107 -6.34804e-011 0.707107   
     length 0.811329   
     axis -90 -45 -2.85299e-015   XYZ
    dof rx rz
    limits (-45.0 45.0)
           (-45.0 45.0)
  end
:hierarchy
  begin
    root lhipjoint rhipjoint lowerback
    lhipjoint lfemur
    lfemur ltibia
    ltibia lfoot
    lfoot ltoes
    rhipjoint rfemur
    rfemur rtibia
    rtibia rfoot
    rfoot rtoes
    lowerback upperback
    upperback thorax
    thorax lowerneck lclavicle rclavicle
    lowerneck upperneck
    upperneck head
    lclavicle lhumerus
    lhumerus lradius
    lradius lwrist
    lwrist lhand lthumb
    lhand lfingers
    rclavicle rhumerus
    rhumerus rradius
    rradius rwrist
    rwrist rhand rthumb
    rhand rfingers
  end

#!OML:ASF F:\VICON\USERDATA\INSTALL\SteveWalk\SteveWalk.ASF
:FULLY-SPECIFIED
:DEGREES
368
root 0.608835 16.269 32.5332 16.9789 3.59603 -1.04297
lowerback -15.5538 -0.496194 3.34256
upperback -4.56529 -1.29437 2.6952
thorax 3.85613 -0.625271 0.705639
lowerneck -4.20171 0.431478 -0.224881
upperneck 8.04464 0.905508 -3.69449
head 3.35115 0.299214 -1.13107
rclavicle 9.93923e-015 -1.59028e-014
rhumerus -52.5072 -39.7051 -50.6069
rradius 15.8156
rwrist 20.8188
rhand -15.5189 -33.7095
rfingers 7.12502
rthumb 10.6642 -63.4189
lclavicle 9.93923e-015 -1.59028e-014
lhumerus -33.8216 1.99718 88.4925
lradius 35.4381
lwrist 3.76851
lhand -23.0131 -20.9752
lfingers 7.12502
lthumb 3.43042 8.97691
rfemur -37.3123 -1.36554 25.6423
rtibia 35.2861
rfoot -15.0617 3.77242
rtoes -5.23866
lfemur -28.3282 1.52374 -18.0614
ltibia 72.7948
lfoot 10.2944 -5.92513
ltoes -6.83301
369
root 0.587094 16.285 32.7255 16.989 3.29848 -0.873271
lowerback -15.672 -0.448956 2.83017
upperback -4.53638 -1.15852 2.65479
thorax 3.96198 -0.558277 0.976143
lowerneck -4.07442 0.386043 -0.281398
upperneck 8.1354 0.843763 -3.62158
head 3.35554 0.269732 -1.10002
rclavicle -8.7838e-015 7.95139e-015
rhumerus -49.3527 -37.4631 -55.0409
rradius 16.6719
rwrist 17.4784
rhand -16.0586 -33.5601
rfingers 7.12502
rthumb 10.1437 -63.2956
lclavicle -8.7838e-015 7.95139e-015
lhumerus -34.1611 2.68662 88.3022
lradius 34.0041
lwrist 2.78618
lhand -23.0362 -21.2316
lfingers 7.12502
lthumb 3.40816 8.7209
rfemur -36.4172 -0.945973 25.4225
rtibia 35.0841
rfoot -15.6126 3.49541
rtoes -5.15994
lfemur -29.826 1.83101 -18.3099
ltibia 73.7274
lfoot 8.62635 -5.29398
ltoes -6.08483
370
root 0.576813 16.3021 32.9169 17.0413 3.26888 -0.917322
lowerback -15.8681 -0.408903 2.75081
upperback -4.50775 -1.10419 2.66893
thorax 4.09954 -0.530147 1.0447
lowerneck -4.06851 0.36263 -0.320088
upperneck 8.31243 0.828109 -3.70287
head 3.41607 0.255289 -1.12222
rclavicle -1.02747e-014 2.38542e-015
rhumerus -46.5792 -35.2623 -58.888
rradius 17.6501
rwrist 14.5179
rhand -16.271 -33.8827
rfingers 7.12502
rthumb 9.93869 -63.6281
lclavicle -1.02747e-014 2.38542e-015
lhumerus -34.5237 3.37597 88.1464
lradius 32.7109
lwrist 1.67881
lhand -23.4884 -21.261
lfingers 7.12502
lthumb 2.97148 8.69805
rfemur -35.5748 -0.85634 25.493
rtibia 34.8936
rfoot -16.2805 3.39325
rtoes -4.94339
lfemur -31.4056 2.03094 -18.3369
ltibia 74.3823
lfoot 7.19961 -4.73884
ltoes -6.54388
371
root 0.58233 16.3209 33.112 16.9995 3.30217 -0.859554
lowerback -15.944 -0.368548 2.80122
upperback -4.47346 -1.06113 2.6199
thorax 4.17461 -0.507828 0.972188
lowerneck -4.13705 0.346549 -0.345607
upperneck 8.55768 0.82777 -3.81265
head 3.5157 0.245875 -1.15657
rclavicle -2.21148e-015 5.56597e-015
rhumerus -44.151 -32.8245 -62.402
rradius 18.7047
rwrist 11.3727
rhand -16.3751 -34.1817
rfingers 7.12502
rthumb 9.83826 -63.9318
lclavicle -2.21148e-015 5.56597e-015
lhumerus -34.9342 4.28266 87.8699
lradius 31.4147
lwrist 0.436981
lhand -23.7343 -21.4175
lfingers 7.12502
lthumb 2.73394 8.54473
rfemur -34.5866 -1.27045 25.5084
rtibia 34.6162
rfoot -16.9238 3.95064
rtoes -3.55897
lfemur -32.7039 2.02525 -18.5486
ltibia 74.7967
lfoot 5.79975 -3.68793
ltoes -6.51105
372
root 0.556964 16.3299 33.3077 16.9614 2.55588 -0.263626
lowerback -15.8875 -0.284032 1.76735
upperback -4.54555 -0.773531 2.44834
thorax 4.08125 -0.370954 1.43092
lowerneck -3.90574 0.342313 -0.308081
upperneck 8.74622 0.825781 -3.85109
head 3.53728 0.244334 -1.17701
rclavicle -1.26725e-015 -3.97569e-015
rhumerus -42.4191 -30.2935 -65.4373
rradius 20.0427
rwrist 8.52164
rhand -16.4566 -34.6188
rfingers 7.12502
rthumb 9.7597 -64.3726
lclavicle -1.26725e-015 -3.97569e-015
lhumerus -35.5052 5.3988 87.3308
lradius 29.9533
lwrist -0.849032
lhand -23.5982 -21.6037
lfingers 7.12502
lthumb 2.86543 8.35678
rfemur -33.6987 -0.580281 24.7351
rtibia 34.4271
rfoot -17.4361 3.71771
rtoes -3.82213
lfemur -33.8734 2.57138 -19.4143
ltibia 74.946
lfoot 4.33879 -2.49215
ltoes -6.00034
